<?xml version="1.0" standalone="no"?><!DOCTYPE svg PUBLIC "-//W3C//DTD SVG 1.1//EN" "http://www.w3.org/Graphics/SVG/1.1/DTD/svg11.dtd"><svg t="1736738296837" class="icon" viewBox="0 0 1024 1024" version="1.1" xmlns="http://www.w3.org/2000/svg" p-id="1445" xmlns:xlink="http://www.w3.org/1999/xlink" width="200" height="200"><path d="M651.52 120.149333a42.666667 42.666667 0 0 1 60.330667-1.92l213.333333 200.32 3.584 3.797334a42.666667 42.666667 0 0 1-3.498667 58.368l-213.333333 201.173333-4.138667 3.413333a42.666667 42.666667 0 0 1-56.192-5.205333l-3.413333-4.138667a42.666667 42.666667 0 0 1 5.162667-56.192l144.256-135.978666H372.906667A202.453333 202.453333 0 0 0 170.666667 586.496a202.496 202.496 0 0 0 192.981333 202.496l9.258667 0.213333H874.666667a42.666667 42.666667 0 0 1 4.992 85.034667l-4.992 0.298667H372.906667c-158.848 0-287.573333-128.981333-287.573334-288A287.786667 287.786667 0 0 1 362.794667 298.666667l10.112-0.170667 406.144-0.042667-125.610667-118.016-3.669333-3.925333a42.666667 42.666667 0 0 1 1.749333-56.362667z" fill="#000000" p-id="1446"></path></svg>